<svg width="128" height="22" viewBox="0 0 128 22" fill="none" xmlns="http://www.w3.org/2000/svg">
<path d="M6.24805 2.57031V6.20703H8.77734V9.10547H6.24805V16.4883C6.24805 17.0352 6.35286 17.4271 6.5625 17.6641C6.77214 17.901 7.17318 18.0195 7.76562 18.0195C8.20312 18.0195 8.59049 17.9876 8.92773 17.9238V20.918C8.15299 21.1549 7.35547 21.2734 6.53516 21.2734C3.76432 21.2734 2.35156 19.8743 2.29688 17.0762V9.10547H0.136719V6.20703H2.29688V2.57031H6.24805ZM17.7871 21.2734C15.6178 21.2734 13.8496 20.6081 12.4824 19.2773C11.1243 17.9466 10.4453 16.1738 10.4453 13.959V13.5762C10.4453 12.0905 10.7324 10.7643 11.3066 9.59766C11.8809 8.42188 12.6921 7.51953 13.7402 6.89062C14.7975 6.2526 16.0007 5.93359 17.3496 5.93359C19.373 5.93359 20.9635 6.57161 22.1211 7.84766C23.2878 9.1237 23.8711 10.9329 23.8711 13.2754V14.8887H14.4512C14.5788 15.8548 14.9616 16.6296 15.5996 17.2129C16.2467 17.7962 17.0625 18.0879 18.0469 18.0879C19.569 18.0879 20.7585 17.5365 21.6152 16.4336L23.5566 18.6074C22.9642 19.446 22.1621 20.1022 21.1504 20.5762C20.1387 21.041 19.0176 21.2734 17.7871 21.2734ZM17.3359 9.13281C16.5521 9.13281 15.9141 9.39714 15.4219 9.92578C14.9388 10.4544 14.6289 11.2109 14.4922 12.1953H19.9883V11.8809C19.9701 11.0059 19.7331 10.3314 19.2773 9.85742C18.8216 9.37435 18.1745 9.13281 17.3359 9.13281ZM32.2793 18.0879C33.0085 18.0879 33.6009 17.8874 34.0566 17.4863C34.5124 17.0853 34.7493 16.5521 34.7676 15.8867H38.4727C38.4635 16.8893 38.1901 17.8099 37.6523 18.6484C37.1146 19.4779 36.3763 20.125 35.4375 20.5898C34.5078 21.0456 33.4779 21.2734 32.3477 21.2734C30.2331 21.2734 28.5651 20.6035 27.3438 19.2637C26.1224 17.9147 25.5117 16.0553 25.5117 13.6855V13.4258C25.5117 11.1471 26.1178 9.32878 27.3301 7.9707C28.5423 6.61263 30.2057 5.93359 32.3203 5.93359C34.1706 5.93359 35.6517 6.46224 36.7637 7.51953C37.8848 8.56771 38.4544 9.9668 38.4727 11.7168H34.7676C34.7493 10.9512 34.5124 10.3314 34.0566 9.85742C33.6009 9.37435 32.9993 9.13281 32.252 9.13281C31.3314 9.13281 30.6341 9.47005 30.1602 10.1445C29.6953 10.8099 29.4629 11.8945 29.4629 13.3984V13.8086C29.4629 15.3307 29.6953 16.4245 30.1602 17.0898C30.625 17.7552 31.3314 18.0879 32.2793 18.0879ZM44.584 7.82031C45.6322 6.5625 46.9492 5.93359 48.5352 5.93359C51.7435 5.93359 53.3704 7.79753 53.416 11.5254V21H49.4648V11.6348C49.4648 10.7871 49.2826 10.1628 48.918 9.76172C48.5534 9.35156 47.9473 9.14648 47.0996 9.14648C45.9421 9.14648 45.1035 9.5931 44.584 10.4863V21H40.6328V0H44.584V7.82031ZM56.6016 19.0586C56.6016 18.4297 56.8112 17.9193 57.2305 17.5273C57.6589 17.1354 58.1921 16.9395 58.8301 16.9395C59.4772 16.9395 60.0104 17.1354 60.4297 17.5273C60.8581 17.9193 61.0723 18.4297 61.0723 19.0586C61.0723 19.6784 60.8626 20.1842 60.4434 20.5762C60.0241 20.959 59.4863 21.1504 58.8301 21.1504C58.1829 21.1504 57.6497 20.959 57.2305 20.5762C56.8112 20.1842 56.6016 19.6784 56.6016 19.0586ZM68.1816 6.20703L68.3047 7.91602C69.362 6.5944 70.7793 5.93359 72.5566 5.93359C74.1243 5.93359 75.291 6.39388 76.0566 7.31445C76.8223 8.23503 77.2142 9.61133 77.2324 11.4434V21H73.2812V11.5391C73.2812 10.7005 73.099 10.0944 72.7344 9.7207C72.3698 9.33789 71.7637 9.14648 70.916 9.14648C69.804 9.14648 68.9701 9.62044 68.4141 10.5684V21H64.4629V6.20703H68.1816ZM87.0488 21.2734C84.8796 21.2734 83.1113 20.6081 81.7441 19.2773C80.3861 17.9466 79.707 16.1738 79.707 13.959V13.5762C79.707 12.0905 79.9941 10.7643 80.5684 9.59766C81.1426 8.42188 81.9538 7.51953 83.002 6.89062C84.0592 6.2526 85.2624 5.93359 86.6113 5.93359C88.6348 5.93359 90.2253 6.57161 91.3828 7.84766C92.5495 9.1237 93.1328 10.9329 93.1328 13.2754V14.8887H83.7129C83.8405 15.8548 84.2233 16.6296 84.8613 17.2129C85.5085 17.7962 86.3242 18.0879 87.3086 18.0879C88.8307 18.0879 90.0202 17.5365 90.877 16.4336L92.8184 18.6074C92.2259 19.446 91.4238 20.1022 90.4121 20.5762C89.4004 21.041 88.2793 21.2734 87.0488 21.2734ZM86.5977 9.13281C85.8138 9.13281 85.1758 9.39714 84.6836 9.92578C84.2005 10.4544 83.8906 11.2109 83.7539 12.1953H89.25V11.8809C89.2318 11.0059 88.9948 10.3314 88.5391 9.85742C88.0833 9.37435 87.4362 9.13281 86.5977 9.13281ZM108.254 15.627L110.195 6.20703H114.01L110.236 21H106.928L104.125 11.6895L101.322 21H98.0273L94.2539 6.20703H98.0684L99.9961 15.6133L102.703 6.20703H105.561L108.254 15.627ZM123.99 16.9121C123.99 16.429 123.749 16.0508 123.266 15.7773C122.792 15.4948 122.026 15.2441 120.969 15.0254C117.451 14.2871 115.691 12.7923 115.691 10.541C115.691 9.22852 116.234 8.13477 117.318 7.25977C118.412 6.37565 119.839 5.93359 121.598 5.93359C123.475 5.93359 124.975 6.37565 126.096 7.25977C127.226 8.14388 127.791 9.29232 127.791 10.7051H123.84C123.84 10.14 123.658 9.67513 123.293 9.31055C122.928 8.93685 122.359 8.75 121.584 8.75C120.919 8.75 120.404 8.90039 120.039 9.20117C119.674 9.50195 119.492 9.88477 119.492 10.3496C119.492 10.7871 119.697 11.1426 120.107 11.416C120.527 11.6803 121.229 11.9128 122.213 12.1133C123.197 12.3047 124.027 12.5234 124.701 12.7695C126.788 13.5352 127.832 14.8613 127.832 16.748C127.832 18.097 127.253 19.1908 126.096 20.0293C124.938 20.8587 123.443 21.2734 121.611 21.2734C120.372 21.2734 119.269 21.0547 118.303 20.6172C117.346 20.1706 116.594 19.5645 116.047 18.7988C115.5 18.0241 115.227 17.1901 115.227 16.2969H118.973C119.009 16.9987 119.269 17.5365 119.752 17.9102C120.235 18.2839 120.882 18.4707 121.693 18.4707C122.45 18.4707 123.02 18.3294 123.402 18.0469C123.794 17.7552 123.99 17.377 123.99 16.9121Z" fill="#E1E1E6"/>
</svg>
